<?xml version="1.0" encoding="UTF-8"?>
<!-- Generated by IcoMoon.io -->
<!DOCTYPE svg PUBLIC "-//W3C//DTD SVG 1.1//EN" "http://www.w3.org/Graphics/SVG/1.1/DTD/svg11.dtd">
<svg version="1.1" xmlns="http://www.w3.org/2000/svg" xmlns:xlink="http://www.w3.org/1999/xlink" width="24" height="32" viewBox="0 0 24 32">
<g id="icomoon-ignore">
	<line stroke-width="1" x1="" y1="" x2="" y2="" stroke="#449FDB" opacity=""/>
</g>
	<path d="M17.5 18.625l-0.25 0.438 6.75 6.813-2.125 2.125-6.75-6.813-0.438 0.313c-1.5 0.938-3.313 1.563-5.188 1.563-5.25 0-9.5-4.313-9.5-9.563s4.25-9.5 9.5-9.5 9.5 4.25 9.5 9.5c0 1.875-0.563 3.625-1.5 5.125zM14.813 8.188c-1.438-1.438-3.313-2.188-5.313-2.188s-3.875 0.75-5.313 2.188-2.188 3.313-2.188 5.313 0.75 3.875 2.188 5.313 3.313 2.188 5.313 2.188 3.875-0.75 5.313-2.188 2.25-3.313 2.25-5.313-0.813-3.875-2.25-5.313z" fill="#111111"/>
</svg>